<svg height='300px' width='300px'  fill="#FF1010" xmlns="http://www.w3.org/2000/svg" xmlns:xlink="http://www.w3.org/1999/xlink" version="1.1" x="0px" y="0px" viewBox="0 0 100 100" enable-background="new 0 0 100 100" xml:space="preserve"><path d="M50,16.416c-18.518,0-33.583,15.066-33.583,33.584S31.482,83.584,50,83.584S83.583,68.518,83.583,50  S68.518,16.416,50,16.416z M78.583,50c0,6.982-2.521,13.385-6.694,18.355L31.646,28.11c4.97-4.174,11.372-6.694,18.354-6.694  C65.761,21.416,78.583,34.239,78.583,50z M21.417,50c0-6.982,2.521-13.385,6.693-18.354L68.354,71.89  C63.385,76.064,56.982,78.584,50,78.584C34.239,78.584,21.417,65.761,21.417,50z"></path></svg>