<svg height="16" width="16" xmlns="http://www.w3.org/2000/svg"><path d="m1.5 8h10" fill="none" stroke="#000"/><path d="m1.5 10h10" fill="none" stroke="#000"/><g fill="#323232"><path d="m1.492093 5.507429h4.937616v.995835h-4.937616z"/><path d="m3.7768926 1038.418-.014031 1.4157.023214 1.4156-1.2190481-.72-1.2375657-.6877 1.2330786-.6957z" transform="matrix(.99508079 0 0 1 2.181767 -1031.8305)"/><path d="m-8.487043 6.396342h2.979912v.995835h-2.979912z" transform="rotate(-90)"/><path d="m5.229077 7.502082h2.170244v.995835h-2.170244z"/></g><path d="m4.150352 4.367866h11.358748v.773668h-11.358748z" fill="#f50000" transform="matrix(.90306559 .42950266 -.52650978 .85016907 0 0)"/><path d="m-8.921851-10.753339h11.358748v.773668h-11.358748z" fill="#f50000" transform="matrix(-.901918 .43190731 -.32976856 -.94406181 0 0)"/></svg>